<svg xmlns="http://www.w3.org/2000/svg" width="512" height="512" data-name="Layer 1" viewBox="0 0 24 24"><path d="M2.442 7.436.658 9.927a3.4 3.4 0 0 0 .416 4.49L12 24l10.994-9.641a3.4 3.4 0 0 0 .287-4.5L21.24 7.422A3.416 3.416 0 0 0 18.5 6.03H5.2a3.425 3.425 0 0 0-2.758 1.406Zm.646 4.251L4.872 9.2a.4.4 0 0 1 .328-.17h3.988L8 12h8l-1.188-2.97H18.5a.483.483 0 0 1 .386.242l2.036 2.428A.427.427 0 0 1 21 12h-5l-4 8.006L8 12H3.018a.4.4 0 0 1 .07-.313ZM10.5 0h3v4h-3zM15.735 3.444l2-3.143 2.533 1.612-2 3.143zM3.735 1.92 6.266.31l2 3.141-2.532 1.612z" color="currentColor"/></svg>